<svg id="Calque_1" data-name="Calque 1" xmlns="http://www.w3.org/2000/svg" viewBox="0 0 35.38 35.38"><defs><style>.cls-1{fill:#fcf8f2;}</style></defs><path class="cls-1" d="M28.72,7.67a2.07,2.07,0,1,0,2.07,2.07A2.07,2.07,0,0,0,28.72,7.67Z" transform="translate(-1.66 -1.35)"/><path class="cls-1" d="M19.5,10.33A8.71,8.71,0,1,0,28.21,19,8.72,8.72,0,0,0,19.5,10.33Zm0,14.29A5.58,5.58,0,1,1,25.08,19,5.59,5.59,0,0,1,19.5,24.62Z" transform="translate(-1.66 -1.35)"/><path class="cls-1" d="M26.41,36.73H12.29A10.64,10.64,0,0,1,1.66,26.1V12A10.64,10.64,0,0,1,12.29,1.35H26.41A10.64,10.64,0,0,1,37,12V26.1A10.64,10.64,0,0,1,26.41,36.73Zm-14.12-32A7.3,7.3,0,0,0,5,12V26.1a7.3,7.3,0,0,0,7.3,7.3H26.41a7.3,7.3,0,0,0,7.3-7.3V12a7.3,7.3,0,0,0-7.3-7.3Z" transform="translate(-1.66 -1.35)"/></svg>