<svg width="44" height="42" viewBox="0 0 44 42" fill="none" xmlns="http://www.w3.org/2000/svg">
<path d="M0 18.885C0 8.41737 9.88257 0 22 0C34.1174 0 44 8.41737 44 18.885C44 29.3536 34.1176 37.7712 22 37.7712C20.6822 37.7712 19.3765 37.6699 18.0926 37.4709C14.8398 40.6821 10.8301 42.0296 6.1585 41.4808C5.28377 41.378 4.88037 40.3542 5.4555 39.6967C7.12367 37.7894 8.19081 35.8616 8.67277 33.909C3.26845 30.3745 0 24.8739 0 18.885ZM16.899 35.5676C17.1545 35.2974 17.532 35.1739 17.9007 35.24C19.243 35.4805 20.6138 35.6031 22 35.6031C32.9681 35.6031 41.8 28.0803 41.8 18.885C41.8 9.69066 32.9679 2.168 22 2.168C11.0321 2.168 2.2 9.69066 2.2 18.885C2.2 24.325 5.31143 29.3433 10.4796 32.4742C10.8629 32.7064 11.0641 33.1453 10.9875 33.5822C10.6363 35.5851 9.78741 37.5349 8.45084 39.4288C11.7333 39.3552 14.5286 38.0752 16.899 35.5676Z" fill="#FF9185"/>
</svg>
