<svg width="44" height="40" viewBox="0 0 44 40" fill="none" xmlns="http://www.w3.org/2000/svg">
<g clip-path="url(#clip0)">
<path d="M22.002 39.8381L21.4031 39.2782C20.383 38.325 19.1476 37.1313 17.7812 35.8126C16.7705 34.8409 15.6896 33.7952 14.5665 32.7264C8.34296 26.7854 6.35424 24.7449 4.22045 21.6773C1.92756 18.406 0.27575 16.0416 0.13537 12.5298C-0.0375792 9.47152 0.965356 6.4617 2.94298 4.1041C4.63182 2.14834 6.93523 0.809147 9.48473 0.300745C11.9586 -0.139623 14.5099 0.208739 16.7705 1.29554C18.8131 2.23266 20.6049 3.63041 22.002 5.37651C23.3991 3.63041 25.191 2.23266 27.2335 1.29554C29.4941 0.208739 32.0455 -0.139623 34.5193 0.300745C37.062 0.813 39.3583 2.15187 41.0423 4.1041C43.0199 6.4617 44.0229 9.47152 43.8499 12.5298C43.7096 16.0416 42.0577 18.406 39.7742 21.6773C37.6311 24.7449 35.6423 26.7669 29.4188 32.7264C28.2957 33.7952 27.2148 34.8409 26.2041 35.8126C24.8377 37.1313 23.6024 38.325 22.5823 39.2782L22.002 39.8381ZM11.5951 1.82301C10.9982 1.82243 10.4026 1.87977 9.81696 1.99421C7.65821 2.43017 5.71027 3.57085 4.28596 5.23308C2.58785 7.25424 1.7283 9.83707 1.88077 12.4604C1.99307 15.3383 3.25182 17.2678 5.64765 20.6964C7.70189 23.6391 9.65318 25.6426 15.7785 31.4864C16.9015 32.5599 17.9871 33.6055 18.9979 34.5772C20.1022 35.6414 21.1176 36.6269 22.002 37.4598C22.8864 36.6223 23.9018 35.6414 25.0062 34.5772C26.0169 33.6055 27.1025 32.5599 28.2256 31.4864C34.3508 25.6426 36.3021 23.6391 38.3798 20.6964C40.7756 17.2678 42.0343 15.3383 42.1232 12.4604C42.2769 9.83551 41.4173 7.2508 39.7181 5.22845C38.2937 3.56623 36.3458 2.42554 34.1871 1.98958C32.0713 1.61199 29.8889 1.91356 27.9588 2.8502C25.8365 3.82585 24.0313 5.36727 22.746 7.30132L22.002 8.51821L21.258 7.3152C19.9747 5.37603 18.1693 3.82965 16.0452 2.8502C14.6564 2.18792 13.1369 1.83717 11.5951 1.82301Z" fill="#FF9185" stroke="#FF9185" stroke-width="0.5" stroke-miterlimit="10"/>
</g>
<defs>
<clipPath id="clip0">
<rect width="44" height="40" fill="white"/>
</clipPath>
</defs>
</svg>
