<svg width="20" height="22" viewBox="0 0 20 22" fill="none" xmlns="http://www.w3.org/2000/svg">
<g clip-path="url(#clip0)">
<path d="M15.2966 3.83008C14.6465 3.83008 14.1265 4.39346 14.1265 5.08405C14.1265 5.78071 14.6522 6.33803 15.2966 6.33803C15.9467 6.33803 16.4668 5.77465 16.4668 5.08405C16.4668 4.39346 15.9411 3.83008 15.2966 3.83008Z" fill="#FCF8F2"/>
<path d="M10.0848 5.44141C7.37142 5.44141 5.16113 7.81111 5.16113 10.7202C5.16113 13.6293 7.37142 15.999 10.0848 15.999C12.7982 15.999 15.0085 13.6293 15.0085 10.7202C15.0085 7.81111 12.7982 5.44141 10.0848 5.44141ZM10.0848 14.102C8.34372 14.102 6.93049 12.5869 6.93049 10.7202C6.93049 8.85354 8.34372 7.33838 10.0848 7.33838C11.8259 7.33838 13.2391 8.85354 13.2391 10.7202C13.2391 12.5869 11.8203 14.102 10.0848 14.102Z" fill="#FCF8F2"/>
<path d="M13.991 21.4425H6.00905C2.69644 21.4425 0 18.5516 0 15.0001V6.44245C0 2.89092 2.69644 0 6.00905 0H13.9966C17.3092 0 20.0057 2.89092 20.0057 6.44245V15.0061C20 18.5516 17.3036 21.4425 13.991 21.4425ZM6.00905 2.01819C3.73657 2.01819 1.88242 4.00001 1.88242 6.44245V15.0061C1.88242 17.4425 3.73092 19.4304 6.00905 19.4304H13.9966C16.2691 19.4304 18.1232 17.4486 18.1232 15.0061V6.44245C18.1232 4.00608 16.2747 2.01819 13.9966 2.01819H6.00905Z" fill="#FCF8F2"/>
</g>
<defs>
<clipPath id="clip0">
<rect width="20" height="21.4425" fill="white"/>
</clipPath>
</defs>
</svg>
