<svg width="58" height="39" viewBox="0 0 58 39" fill="none" xmlns="http://www.w3.org/2000/svg">
<path d="M0.900117 36.6994C0.700117 37.3994 1.10012 38.1994 1.80012 38.4994C2.00012 38.5994 2.30012 38.6994 2.50012 38.6994C3.00012 38.6994 3.40012 38.4994 3.70012 38.0994C12.0001 28.3994 28.8001 28.6994 32.9001 28.9994V36.6994C32.9001 37.2994 33.3001 37.8994 33.8001 38.1994C34.4001 38.4994 35.0001 38.3994 35.5001 37.9994L57.0001 20.1994C57.4001 19.8994 57.6001 19.3994 57.6001 18.8994C57.6001 18.3994 57.4001 17.8994 57.0001 17.5994L35.6001 0.999434C35.1001 0.599434 34.4001 0.499433 33.9001 0.799433C33.3001 1.09943 33.0001 1.59943 33.0001 2.29943V10.1994C8.10012 14.9994 2.30012 30.2994 0.900117 36.6994ZM33.7001 12.0994C34.5001 11.9994 35.0001 11.2994 35.0001 10.4994V2.99943L55.4001 18.9994L35.0001 35.8994V28.5994C35.0001 27.6994 34.3001 26.9994 33.5001 26.9994C32.9001 26.9994 31.7001 26.8994 30.3001 26.8994C23.9001 26.8994 11.0001 27.9994 3.30012 35.6994C5.00012 29.0994 11.3001 16.2994 33.7001 12.0994Z" fill="#FF9185"/>
</svg>
